<svg height="512" viewBox="0 0 64 64" width="512" xmlns="http://www.w3.org/2000/svg"><g id="Icons"><g><g><path d="m6 52h52c1.105 0 2-.895 2-2v-36c0-1.105-.895-2-2-2h-52c-1.105 0-2 .895-2 2v36c0 1.105.895 2 2 2z" fill="#0a5078"/></g><g><path d="m9 48h46c.552 0 1-.448 1-1v-30c0-.552-.448-1-1-1h-46c-.552 0-1 .448-1 1v30c0 .552.448 1 1 1z" fill="#00a0c8"/></g><g><path d="m28 52h8v4h-8z" fill="#0a5078" transform="matrix(-1 0 0 -1 64 108)"/></g><g><path d="m20 58h24c0-1.105-.895-2-2-2h-20c-1.105 0-2 .895-2 2z" fill="#0a5078"/></g><g><path d="m28 52h8v1h-8z" fill="#00325a" transform="matrix(-1 0 0 -1 64 105)"/></g><g><path d="m50 32v2c0 .55-.45 1-1 1h-.28c-.5 0-.9.36-.99.85-.15.88-.38 1.74-.67 2.56-.17.47 0 .98.43 1.22l.23.14c.48.27.64.89.37 1.36l-1 1.74c-.28.47-.89.64-1.37.36l-.24-.14c-.43-.25-.96-.14-1.28.24-.57.67-1.2 1.3-1.87 1.87-.38.32-.49.85-.24 1.28l.14.24c.26.44.13.99-.25 1.28h-19.96c-.38-.29-.51-.84-.25-1.28l.14-.24c.25-.43.14-.96-.24-1.28-.67-.57-1.3-1.2-1.87-1.87-.32-.38-.85-.49-1.28-.24l-.24.14c-.48.28-1.09.11-1.37-.36l-1-1.74c-.27-.47-.11-1.09.37-1.36l.23-.14c.43-.24.6-.75.43-1.22-.29-.82-.52-1.68-.67-2.56-.09-.49-.49-.85-.99-.85h-.28c-.55 0-1-.45-1-1v-2c0-.55.45-1 1-1h.28c.5 0 .9-.36.99-.85.15-.88.38-1.74.67-2.56.17-.47 0-.98-.43-1.22l-.23-.14c-.48-.27-.64-.89-.37-1.36l1-1.74c.28-.47.89-.64 1.37-.36l.24.14c.43.25.96.14 1.28-.24.57-.67 1.2-1.3 1.87-1.87.38-.32.49-.85.24-1.28l-.14-.24c-.28-.48-.11-1.09.36-1.37l1.74-1c.47-.27 1.09-.11 1.36.37l.14.23c.24.43.75.6 1.22.43.82-.29 1.68-.52 2.56-.67.49-.09.85-.49.85-.99v-.28h4v.28c0 .5.36.9.85.99.88.15 1.74.38 2.56.67.47.17.98 0 1.22-.43l.14-.23c.27-.48.89-.64 1.36-.37l1.74 1c.47.28.64.89.36 1.37l-.14.24c-.25.43-.14.96.24 1.28.67.57 1.3 1.2 1.87 1.87.32.38.85.49 1.28.24l.24-.14c.48-.28 1.09-.11 1.37.36l1 1.74c.27.47.11 1.09-.37 1.36l-.23.14c-.43.24-.6.75-.43 1.22.29.82.52 1.68.67 2.56.09.49.49.85.99.85h.28c.55 0 1 .45 1 1z" fill="#0082aa"/></g><g><path d="m41.98 48c-.03.04-.07.07-.11.09l-1.74 1c-.47.27-1.09.11-1.36-.37l-.14-.23c-.16-.29-.45-.47-.76-.49z" fill="#00325a"/></g><g><path d="m26.31 48h11.38c-.09.01-.19.03-.28.06-.82.29-1.68.52-2.56.67-.49.09-.85.49-.85.99v.28c0 .55-.45 1-1 1h-2c-.55 0-1-.45-1-1v-.28c0-.5-.36-.9-.85-.99-.88-.15-1.74-.38-2.56-.67-.09-.03-.19-.05-.28-.06z" fill="#00325a"/></g><g><path d="m22.02 48h4.11c-.31.02-.6.2-.76.49l-.14.23c-.27.48-.89.64-1.36.37l-1.74-1c-.04-.02-.08-.05-.11-.09z" fill="#00325a"/></g><g><path d="m50 33v-2c0-.552-.448-1-1-1h-.284c-.492 0-.896-.361-.982-.846-.156-.883-.382-1.742-.676-2.568-.165-.462.004-.973.429-1.218l.235-.136c.478-.276.642-.888.366-1.366l-1-1.732c-.276-.478-.888-.642-1.366-.366l-.247.143c-.427.247-.96.136-1.279-.24-.57-.673-1.194-1.297-1.867-1.867-.376-.319-.487-.852-.24-1.279l.143-.247c.276-.478.112-1.09-.366-1.366l-1.732-1c-.478-.276-1.09-.112-1.366.366l-.136.235c-.245.425-.756.594-1.218.429-.826-.294-1.685-.52-2.568-.676-.485-.086-.846-.49-.846-.982v-.284c0-.552-.448-1-1-1h-2c-.552 0-1 .448-1 1v.284c0 .492-.361.896-.846.982-.883.156-1.742.382-2.568.676-.462.165-.973-.004-1.218-.429l-.136-.235c-.276-.478-.888-.642-1.366-.366l-1.732 1c-.478.276-.642.888-.366 1.366l.143.247c.247.427.136.96-.24 1.279-.673.57-1.297 1.194-1.867 1.867-.319.376-.852.487-1.279.24l-.247-.143c-.478-.276-1.09-.112-1.366.366l-1 1.732c-.276.478-.112 1.09.366 1.366l.235.136c.425.245.594.756.429 1.218-.294.826-.52 1.685-.676 2.568-.086.485-.49.846-.982.846h-.284c-.552 0-1 .448-1 1v2c0 .552.448 1 1 1h.284c.492 0 .896.361.982.846.156.883.382 1.742.676 2.568.165.462-.004.973-.429 1.218l-.235.136c-.478.276-.642.888-.366 1.366l1 1.732c.276.478.888.642 1.366.366l.247-.143c.427-.247.96-.136 1.279.24.57.673 1.194 1.297 1.867 1.867.376.319.487.852.24 1.279l-.143.247c-.276.478-.112 1.09.366 1.366l1.732 1c.478.276 1.09.112 1.366-.366l.136-.235c.245-.425.756-.594 1.218-.429.826.294 1.685.52 2.568.676.485.086.846.49.846.982v.284c0 .552.448 1 1 1h2c.552 0 1-.448 1-1v-.284c0-.492.361-.896.846-.982.883-.156 1.742-.382 2.568-.676.462-.165.973.004 1.218.429l.136.235c.276.478.888.642 1.366.366l1.732-1c.478-.276.642-.888.366-1.366l-.143-.247c-.247-.427-.136-.96.24-1.279.673-.57 1.297-1.194 1.867-1.867.319-.376.852-.487 1.279-.24l.247.143c.478.276 1.09.112 1.366-.366l1-1.732c.276-.478.112-1.09-.366-1.366l-.235-.136c-.425-.245-.594-.756-.429-1.218.294-.826.52-1.685.676-2.568.086-.485.49-.846.982-.846h.284c.552 0 1-.448 1-1z" fill="#c80a50"/></g><g><path d="m22 10.272h2v25.456h-2z" fill="#0a5078" transform="matrix(.707 -.707 .707 .707 -9.527 23)"/></g><g><g><circle cx="14" cy="14" fill="#fab400" r="3"/></g><g><path d="m14 12c1.103 0 2 .897 2 2s-.897 2-2 2-2-.897-2-2 .897-2 2-2m0-2c-2.209 0-4 1.791-4 4s1.791 4 4 4 4-1.791 4-4-1.791-4-4-4z" fill="#c80a50"/></g></g><g><path d="m28.272 22h25.456v2h-25.456z" fill="#0a5078" transform="matrix(.707 -.707 .707 .707 -4.255 35.728)"/></g><g><g><circle cx="50" cy="14" fill="#fab400" r="3"/></g><g><path d="m50 12c1.103 0 2 .897 2 2s-.897 2-2 2-2-.897-2-2 .897-2 2-2m0-2c-2.209 0-4 1.791-4 4s1.791 4 4 4 4-1.791 4-4-1.791-4-4-4z" fill="#c80a50"/></g></g><g><path d="m10.272 40h25.456v2h-25.456z" fill="#0a5078" transform="matrix(.707 -.707 .707 .707 -22.255 28.272)"/></g><g><g><circle cx="14" cy="50" fill="#fab400" r="3"/></g><g><path d="m14 48c1.103 0 2 .897 2 2s-.897 2-2 2-2-.897-2-2 .897-2 2-2m0-2c-2.209 0-4 1.791-4 4s1.791 4 4 4 4-1.791 4-4-1.791-4-4-4z" fill="#c80a50"/></g></g><g><path d="m40 28.272h2v25.456h-2z" fill="#0a5078" transform="matrix(.707 -.707 .707 .707 -16.983 41)"/></g><g><g><circle cx="50" cy="50" fill="#fab400" r="3"/></g><g><path d="m50 48c1.103 0 2 .897 2 2s-.897 2-2 2-2-.897-2-2 .897-2 2-2m0-2c-2.209 0-4 1.791-4 4s1.791 4 4 4 4-1.791 4-4-1.791-4-4-4z" fill="#c80a50"/></g></g><g><circle cx="32" cy="32" fill="#0a5078" r="12"/></g><g><path d="m22.84 39.75-1.25 1.25h-5.18l-.5-.87c-.27-.47-.11-1.09.37-1.36l.23-.14c.43-.24.6-.75.43-1.22-.29-.82-.52-1.68-.67-2.56-.09-.49-.49-.85-.99-.85h-.28c-.55 0-1-.45-1-1v-2c0-.55.45-1 1-1h.28c.5 0 .9-.36.99-.85.15-.88.38-1.74.67-2.56.17-.47 0-.98-.43-1.22l-.23-.14c-.11-.06-.2-.14-.26-.23h6.23c-1.42 1.97-2.25 4.38-2.25 7 0 2.95 1.07 5.66 2.84 7.75z" fill="#a00028"/></g><g><path d="m41.16 39.75 1.25 1.25h-20.82l1.25-1.25c-1.77-2.09-2.84-4.8-2.84-7.75 0-2.62.83-5.03 2.25-7h19.5c1.42 1.97 2.25 4.38 2.25 7 0 2.95-1.07 5.66-2.84 7.75z" fill="#00325a"/></g><g><path d="m50 31v2c0 .55-.45 1-1 1h-.28c-.5 0-.9.36-.99.85-.15.88-.38 1.74-.67 2.56-.17.47 0 .98.43 1.22l.23.14c.48.27.64.89.37 1.36l-.5.87h-5.18l-1.25-1.25c1.77-2.09 2.84-4.8 2.84-7.75 0-2.62-.83-5.03-2.25-7h6.23c-.06.09-.15.17-.26.23l-.23.14c-.43.24-.6.75-.43 1.22.29.82.52 1.68.67 2.56.09.49.49.85.99.85h.28c.55 0 1 .45 1 1z" fill="#a00028"/></g><g><path d="m48 40h-32c-1.105 0-2-.895-2-2v-12c0-1.105.895-2 2-2h32c1.105 0 2 .895 2 2v12c0 1.105-.895 2-2 2z" fill="#fab400"/></g><g fill="#0a5078"><path d="m22 29h2c.552 0 1-.448 1-1s-.448-1-1-1h-2c-1.654 0-3 1.346-3 3v4c0 1.654 1.346 3 3 3h2c.552 0 1-.448 1-1s-.448-1-1-1h-2c-.551 0-1-.449-1-1v-4c0-.551.449-1 1-1z"/><path d="m34 27c-.768 0-1.469.29-2 .766-.531-.476-1.232-.766-2-.766-1.654 0-3 1.346-3 3v6c0 .552.448 1 1 1s1-.448 1-1v-6c0-.551.449-1 1-1s1 .449 1 1v6c0 .552.448 1 1 1s1-.448 1-1v-6c0-.551.448-1 1-1s1 .449 1 1v6c0 .552.447 1 1 1s1-.448 1-1v-6c0-1.654-1.346-3-3-3z"/><path d="m42 31c-.552 0-1-.449-1-1s.448-1 1-1h2c.553 0 1-.448 1-1s-.447-1-1-1h-2c-1.654 0-3 1.346-3 3s1.346 3 3 3c.552 0 1 .449 1 1s-.448 1-1 1h-2c-.553 0-1 .448-1 1s.447 1 1 1h2c1.654 0 3-1.346 3-3s-1.346-3-3-3z"/></g></g></g></svg>